<svg xmlns="http://www.w3.org/2000/svg" width="203.017" height="202.753" viewBox="0 0 203.017 202.753">
  <g id="Group_159" data-name="Group 159" transform="translate(-1.004 -1)">
    <path id="Path_265" data-name="Path 265" d="M128.2,109.276a3.454,3.454,0,0,1-1.13-.2,3.371,3.371,0,0,1-2.253-3.187V82.207H90.978a3.384,3.384,0,0,1,0-6.767H128.2a3.385,3.385,0,0,1,3.384,3.384V96.364l15.984-19.672a3.367,3.367,0,0,1,2.626-1.252h32.144a3.394,3.394,0,0,0,3.384-3.384V11.151a3.394,3.394,0,0,0-3.384-3.384H13.155a3.394,3.394,0,0,0-3.384,3.384V72.056a3.394,3.394,0,0,0,3.384,3.384H23.306a3.384,3.384,0,1,1,0,6.767H13.155A10.163,10.163,0,0,1,3,72.056V11.151A10.163,10.163,0,0,1,13.155,1H182.336a10.163,10.163,0,0,1,10.151,10.151V72.056a10.163,10.163,0,0,1-10.151,10.151H151.8l-20.985,25.817A3.351,3.351,0,0,1,128.2,109.276Z" transform="translate(11.534)" fill="#009353"/>
    <path id="Path_266" data-name="Path 266" d="M120.378,87.874,88.152,76.695l-2-15.937a13.77,13.77,0,0,1-5.637,1.137c-.379,0-.7-.081-1.049-.108L81.7,79.618a3.356,3.356,0,0,0,2.247,2.775l34.208,11.883c6.091,2.125,11.43,9.657,11.43,16.113v30.405a3.384,3.384,0,1,0,6.767,0V110.382C136.349,101.05,129.182,90.953,120.378,87.874Zm-115.99,56.3A3.385,3.385,0,0,1,1,140.787V110.382c0-9.332,7.167-19.429,15.964-22.508L49.193,76.769,49.62,73.3a3.386,3.386,0,0,1,6.72.846l-.7,5.549a3.373,3.373,0,0,1-2.253,2.775l-34.2,11.789c-6.077,2.138-11.416,9.67-11.416,16.12v30.405A3.381,3.381,0,0,1,4.388,144.171Zm64.289,33.62a3.36,3.36,0,0,1-1.638-.426l-43.987-24.3a3.384,3.384,0,0,1-1.746-2.978l.129-22.643c.014-1.861,1.55-3.675,3.4-3.357a3.379,3.379,0,0,1,3.363,3.4l-.115,20.633,40.651,22.46,40.542-20.708v-22.42a3.384,3.384,0,1,1,6.767,0V151.94a3.376,3.376,0,0,1-1.841,3.011l-43.987,22.46A3.292,3.292,0,0,1,68.676,177.791Zm0-162.15A47.532,47.532,0,0,1,54.255,13.5a3.386,3.386,0,0,1,2.064-6.449A40.5,40.5,0,0,0,68.676,8.874c12.235,0,18.772-3.018,18.84-3.052a3.381,3.381,0,0,1,2.937,6.091C90.142,12.075,82.61,15.641,68.676,15.641Z" transform="translate(0 25.963)" fill="#009353"/>
    <path id="Path_267" data-name="Path 267" d="M35.232,84.207C16.426,84.207,6.864,68.344,6.8,37.046c-.014-7.945.832-19.375,8.3-26.852C19.864,5.416,26.631,3,35.232,3S50.6,5.416,55.365,10.194c7.471,7.478,8.317,18.914,8.3,26.859C63.6,68.344,54.038,84.207,35.232,84.207Zm0-74.44c-6.828,0-11.843,1.705-15.341,5.2-4.277,4.277-6.341,11.5-6.321,22.061C13.625,64.223,20.7,77.44,35.232,77.44S56.84,64.223,56.894,37.032c.02-10.564-2.05-17.784-6.327-22.068C47.075,11.473,42.06,9.767,35.232,9.767ZM113.055,43.6H85.987a3.384,3.384,0,1,1,0-6.767h27.069a3.384,3.384,0,0,1,0,6.767Zm33.836-20.3H85.987a3.384,3.384,0,1,1,0-6.767h60.905a3.384,3.384,0,1,1,0,6.767Z" transform="translate(33.444 11.534)" fill="#009353"/>
  </g>
</svg>
