<svg xmlns="http://www.w3.org/2000/svg" width="435.876" height="269.578" viewBox="0 0 435.876 269.578">
  <g id="Group_65" data-name="Group 65" transform="translate(174.042 -182.933)" opacity="0.25">
    <g id="Group_58" data-name="Group 58" transform="translate(43.732 183.477)">
      <g id="Group_34" data-name="Group 34" transform="translate(0 23.104)">
        <g id="Path_124" data-name="Path 124" transform="translate(54.306)" fill="none">
          <path d="M54.9,0,0,23.766V82.081L54.9,58.316Z" stroke="none"/>
          <path d="M 53.90033340454102 1.522560119628906 L 1 24.42245101928711 L 1 80.55873107910156 L 53.90033340454102 57.65883636474609 L 53.90033340454102 1.522560119628906 M 54.90033340454102 0 L 54.90033340454102 58.31562423706055 L 0 82.08129119873047 L 0 23.76566696166992 L 54.90033340454102 0 Z" stroke="none" fill="#009353"/>
        </g>
        <g id="Path_125" data-name="Path 125" fill="none">
          <path d="M0,0,54.9,23.766V82.081L0,58.316Z" stroke="none"/>
          <path d="M 1 1.522560119628906 L 1 57.65883636474609 L 53.90033340454102 80.55873107910156 L 53.90033340454102 24.42245101928711 L 1 1.522560119628906 M 0 0 L 54.90033340454102 23.76566696166992 L 54.90033340454102 82.08129119873047 L 0 58.31562423706055 L 0 0 Z" stroke="none" fill="#009353"/>
        </g>
        <line id="Line_1" data-name="Line 1" x1="1.682" y2="0.729" transform="translate(54.536 81.558)" fill="none" stroke="#fff" stroke-width="1"/>
        <line id="Line_2" data-name="Line 2" x2="1.682" y2="0.701" transform="translate(52.966 81.558)" fill="none" stroke="#fff" stroke-width="1"/>
      </g>
      <path id="Path_127" data-name="Path 127" d="M3693.186,1650.155l-54.5-23.358-54.487,23.358" transform="translate(-3584.093 -1626.797)" fill="none" stroke="#009353" stroke-width="1"/>
    </g>
    <g id="Group_59" data-name="Group 59" transform="translate(152.544 184.037)">
      <g id="Group_34-2" data-name="Group 34" transform="translate(0 23.104)">
        <g id="Path_124-2" data-name="Path 124" transform="translate(54.306)" fill="none">
          <path d="M54.9,0,0,23.766V82.081L54.9,58.316Z" stroke="none"/>
          <path d="M 53.90033340454102 1.522560119628906 L 1 24.42245101928711 L 1 80.55873107910156 L 53.90033340454102 57.65883636474609 L 53.90033340454102 1.522560119628906 M 54.90033340454102 0 L 54.90033340454102 58.31562423706055 L 0 82.08129119873047 L 0 23.76566696166992 L 54.90033340454102 0 Z" stroke="none" fill="#009353"/>
        </g>
        <g id="Path_125-2" data-name="Path 125" fill="none">
          <path d="M0,0,54.9,23.766V82.081L0,58.316Z" stroke="none"/>
          <path d="M 1 1.522560119628906 L 1 57.65883636474609 L 53.90033340454102 80.55873107910156 L 53.90033340454102 24.42245101928711 L 1 1.522560119628906 M 0 0 L 54.90033340454102 23.76566696166992 L 54.90033340454102 82.08129119873047 L 0 58.31562423706055 L 0 0 Z" stroke="none" fill="#009353"/>
        </g>
        <line id="Line_1-2" data-name="Line 1" x1="1.682" y2="0.729" transform="translate(54.536 81.558)" fill="none" stroke="#009353" stroke-width="1"/>
        <line id="Line_2-2" data-name="Line 2" x2="1.682" y2="0.701" transform="translate(52.966 81.558)" fill="none" stroke="#009353" stroke-width="1"/>
      </g>
      <path id="Path_127-2" data-name="Path 127" d="M3693.186,1650.155l-54.5-23.358-54.487,23.358" transform="translate(-3584.093 -1626.797)" fill="none" stroke="#009353" stroke-width="1"/>
    </g>
    <g id="Group_60" data-name="Group 60" transform="translate(98.178 265.062)">
      <g id="Group_34-3" data-name="Group 34" transform="translate(0 23.104)">
        <g id="Path_124-3" data-name="Path 124" transform="translate(54.306)" fill="none">
          <path d="M54.9,0,0,23.766V82.081L54.9,58.316Z" stroke="none"/>
          <path d="M 53.90033340454102 1.522560119628906 L 1 24.42245101928711 L 1 80.55873107910156 L 53.90033340454102 57.65883636474609 L 53.90033340454102 1.522560119628906 M 54.90033340454102 0 L 54.90033340454102 58.31562423706055 L 0 82.08129119873047 L 0 23.76566696166992 L 54.90033340454102 0 Z" stroke="none" fill="#009353"/>
        </g>
        <g id="Path_125-3" data-name="Path 125" fill="none">
          <path d="M0,0,54.9,23.766V82.081L0,58.316Z" stroke="none"/>
          <path d="M 1 1.522560119628906 L 1 57.65883636474609 L 53.90033340454102 80.55873107910156 L 53.90033340454102 24.42245101928711 L 1 1.522560119628906 M 0 0 L 54.90033340454102 23.76566696166992 L 54.90033340454102 82.08129119873047 L 0 58.31562423706055 L 0 0 Z" stroke="none" fill="#009353"/>
        </g>
      </g>
      <path id="Path_127-3" data-name="Path 127" d="M3693.186,1650.155l-54.5-23.358-54.487,23.358" transform="translate(-3584.093 -1626.797)" fill="none" stroke="#009353" stroke-width="1"/>
    </g>
    <g id="Group_61" data-name="Group 61" transform="translate(-119.352 265.343)">
      <g id="Group_34-4" data-name="Group 34" transform="translate(0 23.104)">
        <g id="Path_124-4" data-name="Path 124" transform="translate(54.306)" fill="none">
          <path d="M54.9,0,0,23.766V82.081L54.9,58.316Z" stroke="none"/>
          <path d="M 53.90033340454102 1.522560119628906 L 1 24.42245101928711 L 1 80.55873107910156 L 53.90033340454102 57.65883636474609 L 53.90033340454102 1.522560119628906 M 54.90033340454102 0 L 54.90033340454102 58.31562423706055 L 0 82.08129119873047 L 0 23.76566696166992 L 54.90033340454102 0 Z" stroke="none" fill="#009353"/>
        </g>
        <g id="Path_125-4" data-name="Path 125" fill="none">
          <path d="M0,0,54.9,23.766V82.081L0,58.316Z" stroke="none"/>
          <path d="M 1 1.522560119628906 L 1 57.65883636474609 L 53.90033340454102 80.55873107910156 L 53.90033340454102 24.42245101928711 L 1 1.522560119628906 M 0 0 L 54.90033340454102 23.76566696166992 L 54.90033340454102 82.08129119873047 L 0 58.31562423706055 L 0 0 Z" stroke="none" fill="#009353"/>
        </g>
        <line id="Line_1-3" data-name="Line 1" x1="1.682" y2="0.729" transform="translate(54.536 81.558)" fill="none" stroke="#009353" stroke-width="1"/>
        <line id="Line_2-3" data-name="Line 2" x2="1.682" y2="0.701" transform="translate(52.966 81.558)" fill="none" stroke="#009353" stroke-width="1"/>
      </g>
      <path id="Path_127-4" data-name="Path 127" d="M3693.186,1650.155l-54.5-23.358-54.487,23.358" transform="translate(-3584.093 -1626.797)" fill="none" stroke="#009353" stroke-width="1"/>
    </g>
    <g id="Group_62" data-name="Group 62" transform="translate(-10.706 265.343)">
      <g id="Group_34-5" data-name="Group 34" transform="translate(0 23.104)">
        <g id="Path_124-5" data-name="Path 124" transform="translate(54.306)" fill="none">
          <path d="M54.9,0,0,23.766V82.081L54.9,58.316Z" stroke="none"/>
          <path d="M 53.90033340454102 1.522560119628906 L 1 24.42245101928711 L 1 80.55873107910156 L 53.90033340454102 57.65883636474609 L 53.90033340454102 1.522560119628906 M 54.90033340454102 0 L 54.90033340454102 58.31562423706055 L 0 82.08129119873047 L 0 23.76566696166992 L 54.90033340454102 0 Z" stroke="none" fill="#4ae6ff"/>
        </g>
        <g id="Path_125-5" data-name="Path 125" fill="none">
          <path d="M0,0,54.9,23.766V82.081L0,58.316Z" stroke="none"/>
          <path d="M 1 1.522560119628906 L 1 57.65883636474609 L 53.90033340454102 80.55873107910156 L 53.90033340454102 24.42245101928711 L 1 1.522560119628906 M 0 0 L 54.90033340454102 23.76566696166992 L 54.90033340454102 82.08129119873047 L 0 58.31562423706055 L 0 0 Z" stroke="none" fill="#4ae6ff"/>
        </g>
      </g>
      <path id="Path_127-5" data-name="Path 127" d="M3693.186,1650.155l-54.5-23.358-54.487,23.358" transform="translate(-3584.093 -1626.797)" fill="none" stroke="#4ae6ff" stroke-width="1"/>
    </g>
    <g id="Group_63" data-name="Group 63" transform="translate(43.898 346.661)">
      <g id="Group_34-6" data-name="Group 34" transform="translate(0 23.104)">
        <g id="Path_124-6" data-name="Path 124" transform="translate(54.306)" fill="none">
          <path d="M54.9,0,0,23.766V82.081L54.9,58.316Z" stroke="none"/>
          <path d="M 53.90033340454102 1.522560119628906 L 1 24.42245101928711 L 1 80.55873107910156 L 53.90033340454102 57.65883636474609 L 53.90033340454102 1.522560119628906 M 54.90033340454102 0 L 54.90033340454102 58.31562423706055 L 0 82.08129119873047 L 0 23.76566696166992 L 54.90033340454102 0 Z" stroke="none" fill="#009353"/>
        </g>
        <g id="Path_125-6" data-name="Path 125" fill="none">
          <path d="M0,0,54.9,23.766V82.081L0,58.316Z" stroke="none"/>
          <path d="M 1 1.522560119628906 L 1 57.65883636474609 L 53.90033340454102 80.55873107910156 L 53.90033340454102 24.42245101928711 L 1 1.522560119628906 M 0 0 L 54.90033340454102 23.76566696166992 L 54.90033340454102 82.08129119873047 L 0 58.31562423706055 L 0 0 Z" stroke="none" fill="#009353"/>
        </g>
        <line id="Line_1-4" data-name="Line 1" x1="1.682" y2="0.729" transform="translate(54.536 81.558)" fill="none" stroke="#009353" stroke-width="1"/>
        <line id="Line_2-4" data-name="Line 2" x2="1.682" y2="0.701" transform="translate(52.966 81.558)" fill="none" stroke="#009353" stroke-width="1"/>
      </g>
      <path id="Path_127-6" data-name="Path 127" d="M3693.186,1650.155l-54.5-23.358-54.487,23.358" transform="translate(-3584.093 -1626.797)" fill="none" stroke="#009353" stroke-width="1"/>
    </g>
    <g id="Group_64" data-name="Group 64" transform="translate(-173.955 346.661)">
      <g id="Group_34-7" data-name="Group 34" transform="translate(0 23.104)">
        <g id="Path_124-7" data-name="Path 124" transform="translate(54.306)" fill="none">
          <path d="M54.9,0,0,23.766V82.081L54.9,58.316Z" stroke="none"/>
          <path d="M 53.90033340454102 1.522560119628906 L 1 24.42245101928711 L 1 80.55873107910156 L 53.90033340454102 57.65883636474609 L 53.90033340454102 1.522560119628906 M 54.90033340454102 0 L 54.90033340454102 58.31562423706055 L 0 82.08129119873047 L 0 23.76566696166992 L 54.90033340454102 0 Z" stroke="none" fill="#009353"/>
        </g>
        <g id="Path_125-7" data-name="Path 125" fill="none">
          <path d="M0,0,54.9,23.766V82.081L0,58.316Z" stroke="none"/>
          <path d="M 1 1.522560119628906 L 1 57.65883636474609 L 53.90033340454102 80.55873107910156 L 53.90033340454102 24.42245101928711 L 1 1.522560119628906 M 0 0 L 54.90033340454102 23.76566696166992 L 54.90033340454102 82.08129119873047 L 0 58.31562423706055 L 0 0 Z" stroke="none" fill="#009353"/>
        </g>
        <line id="Line_1-5" data-name="Line 1" x1="1.682" y2="0.729" transform="translate(54.536 81.558)" fill="none" stroke="#009353" stroke-width="1"/>
        <line id="Line_2-5" data-name="Line 2" x2="1.682" y2="0.701" transform="translate(52.966 81.558)" fill="none" stroke="#009353" stroke-width="1"/>
      </g>
      <path id="Path_127-7" data-name="Path 127" d="M3693.186,1650.155l-54.5-23.358-54.487,23.358" transform="translate(-3584.093 -1626.797)" fill="none" stroke="#009353" stroke-width="1"/>
    </g>
  </g>
</svg>
