<svg id="Groupe_45" data-name="Groupe 45" xmlns="http://www.w3.org/2000/svg" xmlns:xlink="http://www.w3.org/1999/xlink" width="80.493" height="129.308" viewBox="0 0 80.493 129.308">
  <defs>
    <linearGradient id="linear-gradient" x1="0.5" y1="0.143" x2="0.5" y2="0.87" gradientUnits="objectBoundingBox">
      <stop offset="0" stop-color="#009353"/>
      <stop offset="1" stop-color="#202020"/>
    </linearGradient>
  </defs>
  <path id="Rectangle_53_-_Outline" data-name="Rectangle 53 - Outline" d="M23.966,10.894A13.087,13.087,0,0,0,10.894,23.966v81.375a13.087,13.087,0,0,0,13.073,13.073h32.56A13.087,13.087,0,0,0,69.6,105.341V23.966A13.087,13.087,0,0,0,56.526,10.894H23.966M23.966,0h32.56A23.966,23.966,0,0,1,80.493,23.966v81.375a23.966,23.966,0,0,1-23.966,23.966H23.966A23.966,23.966,0,0,1,0,105.341V23.966A23.966,23.966,0,0,1,23.966,0Z" transform="translate(0 0)" fill="url(#linear-gradient)"/>
  <path id="Ellipse_6_-_Outline" data-name="Ellipse 6 - Outline" d="M8.309,0A8.309,8.309,0,1,1,0,8.309,8.309,8.309,0,0,1,8.309,0Z" transform="translate(31.956 98.687)" fill="url(#linear-gradient)"/>
  <g id="Groupe_77" data-name="Groupe 77" transform="translate(18.156 37.863)">
    <path id="Tracé_60" data-name="Tracé 60" d="M18.188,4.349a2.366,2.366,0,0,1,.222.734l.621,9.236h0l.308,4.642a4.771,4.771,0,0,0,.222,1.407,2.326,2.326,0,0,0,2.243,1.408L36.657,20.8a2.45,2.45,0,0,1,1.727.669,2.365,2.365,0,0,1,.713,1.358l.026.312A19.369,19.369,0,0,1,23.765,40.584a19.758,19.758,0,0,1-21.4-9.511A18.325,18.325,0,0,1,.144,24.055,13.427,13.427,0,0,1,0,21.855,19.4,19.4,0,0,1,15.582,2.941,2.434,2.434,0,0,1,18.188,4.349Z" transform="translate(0 3.584)" fill="url(#linear-gradient)"/>
    <path id="Tracé_61" data-name="Tracé 61" d="M11.915,0A21.069,21.069,0,0,1,32.283,17.429l-.016.073h0l-.045.106.006.29a1.786,1.786,0,0,1-.427,1.053,1.846,1.846,0,0,1-1.032.606l-.245.034L13.39,20.7a2.045,2.045,0,0,1-1.561-.506,1.97,1.97,0,0,1-.643-1.2l-1.15-17.11a.272.272,0,0,1,0-.178A1.75,1.75,0,0,1,10.612.469,1.819,1.819,0,0,1,11.915,0Z" transform="translate(12.335)" opacity="0.4" fill="url(#linear-gradient)"/>
  </g>
</svg>
