<svg id="Groupe_43" data-name="Groupe 43" xmlns="http://www.w3.org/2000/svg" xmlns:xlink="http://www.w3.org/1999/xlink" width="117.618" height="114.326" viewBox="0 0 117.618 114.326">
  <defs>
    <linearGradient id="linear-gradient" x1="0.5" x2="0.5" y2="1" gradientUnits="objectBoundingBox">
      <stop offset="0" stop-color="#009353"/>
      <stop offset="1" stop-color="#202020"/>
    </linearGradient>
  </defs>
  <path id="_12" data-name="12" d="M99.208,53.447a19.893,19.893,0,0,0,1.658-39.728v-6A5.716,5.716,0,0,0,95.149,2h-68.6a5.716,5.716,0,0,0-5.716,5.716v5.716A20.024,20.024,0,1,0,22.5,53.447a40.014,40.014,0,0,0,32.64,28.124,1.371,1.371,0,0,0,0,.457v5.716H32.27a5.716,5.716,0,0,0-5.716,5.716v17.149a5.716,5.716,0,0,0,5.716,5.716H89.433a5.716,5.716,0,0,0,5.716-5.716V93.461a5.716,5.716,0,0,0-5.716-5.716H66.568V82.028a1.372,1.372,0,0,0,0-.457,40.014,40.014,0,0,0,32.64-28.124ZM83.717,104.893H37.986V99.177h45.73ZM106.582,33.44a8.574,8.574,0,0,1-5.716,8.06V25.38a8.574,8.574,0,0,1,5.716,8.06Zm-91.461,0a8.574,8.574,0,0,1,5.716-8.06V41.5A8.574,8.574,0,0,1,15.121,33.44ZM60.852,70.6A28.581,28.581,0,0,1,32.27,42.014V13.433H89.433V42.014A28.581,28.581,0,0,1,60.852,70.6Z" transform="translate(-1.642 -2)" fill="url(#linear-gradient)"/>
  <path id="Tracé_256" data-name="Tracé 256" d="M8221.564,6979.333a59.112,59.112,0,0,0,6.3.407,50.694,50.694,0,0,0,6.006-.407v6.24h-12.117Z" transform="translate(-8168.559 -6899.834)" fill="#fff"/>
</svg>
