<svg id="Group_78" data-name="Group 78" xmlns="http://www.w3.org/2000/svg" xmlns:xlink="http://www.w3.org/1999/xlink" width="110.817" height="73.51" viewBox="0 0 110.817 73.51">
  <defs>
    <linearGradient id="linear-gradient" x1="0.5" y1="0.143" x2="0.5" y2="0.87" gradientUnits="objectBoundingBox">
      <stop offset="0" stop-color="#009353"/>
      <stop offset="1" stop-color="#202020"/>
    </linearGradient>
  </defs>
  <g id="layer1" transform="translate(69.793 25.913)">
    <path id="rect4830-9" d="M23.717,1a.641.641,0,0,0-.641.641V6.769a.641.641,0,0,0,.641.641H40.383a.641.641,0,0,0,.641-.641V1.641A.641.641,0,0,0,40.383,1Zm.641,1.282H39.742V6.128H24.358ZM25.64,3.564V4.846h8.974V3.564Zm12.179,0a.641.641,0,1,0,.641.641A.641.641,0,0,0,37.819,3.564Zm-14.1,5.128a.641.641,0,0,0-.641.641v5.128a.641.641,0,0,0,.641.641H40.383a.641.641,0,0,0,.641-.641V9.333a.641.641,0,0,0-.641-.641Zm.641,1.282H39.742V13.82H24.358Zm1.282,1.282v1.282h8.974V11.256Zm12.179,0a.641.641,0,1,0,.641.641A.641.641,0,0,0,37.819,11.256ZM.641,16.384A.641.641,0,0,0,0,17.025v5.128a.641.641,0,0,0,.641.641H17.307a.641.641,0,0,0,.641-.641V17.025a.641.641,0,0,0-.641-.641Zm23.076,0a.641.641,0,0,0-.641.641v5.128a.641.641,0,0,0,.641.641H40.383a.641.641,0,0,0,.641-.641V17.025a.641.641,0,0,0-.641-.641ZM1.282,17.666H16.666v3.846H1.282Zm23.076,0H39.742v3.846H24.358ZM2.564,18.948V20.23h8.974V18.948Zm12.179,0a.641.641,0,1,0,.641.641A.641.641,0,0,0,14.743,18.948Zm10.9,0V20.23h8.974V18.948Zm12.179,0a.641.641,0,1,0,.641.641A.641.641,0,0,0,37.819,18.948ZM.641,24.076A.641.641,0,0,0,0,24.717v5.128a.641.641,0,0,0,.641.641H17.307a.641.641,0,0,0,.641-.641V24.717a.641.641,0,0,0-.641-.641Zm30.768.02v9.6H20.55v1.282H32.691V24.1ZM1.282,25.358H16.666V29.2H1.282ZM2.564,26.64v1.282h8.974V26.64Zm12.179,0a.641.641,0,1,0,.641.641A.641.641,0,0,0,14.743,26.64ZM.641,31.768A.641.641,0,0,0,0,32.409v5.128a.641.641,0,0,0,.641.641H17.307a.641.641,0,0,0,.641-.641V32.409a.641.641,0,0,0-.641-.641Zm.641,1.282H16.666V36.9H1.282Zm1.282,1.282v1.282h8.974V34.332Zm12.179,0a.641.641,0,1,0,.641.641A.641.641,0,0,0,14.743,34.332Z" transform="translate(0 -1)" fill="url(#linear-gradient)"/>
  </g>
  <g id="Group_24" data-name="Group 24" transform="translate(0 0)">
    <path id="Path_60" data-name="Path 60" d="M29.965,5.279a3.9,3.9,0,0,1,.366,1.209L31.355,21.7h0l.508,7.648a7.86,7.86,0,0,0,.366,2.319,3.833,3.833,0,0,0,3.7,2.319l24.469-1.6a4.037,4.037,0,0,1,2.844,1.1,3.9,3.9,0,0,1,1.174,2.238l.043.515a31.911,31.911,0,0,1-25.3,28.734A32.551,32.551,0,0,1,3.9,49.309,30.191,30.191,0,0,1,.237,37.746,22.121,22.121,0,0,1,0,34.121,31.961,31.961,0,0,1,25.671,2.96,4.01,4.01,0,0,1,29.965,5.279Z" transform="translate(0 7.789)" fill="url(#linear-gradient)"/>
    <path id="Path_61" data-name="Path 61" d="M13.142,0A34.712,34.712,0,0,1,46.7,28.714l-.026.12h0l-.074.174.01.478a2.942,2.942,0,0,1-.7,1.735,3.042,3.042,0,0,1-1.7,1l-.4.055L15.572,34.1A3.369,3.369,0,0,1,13,33.27,3.246,3.246,0,0,1,11.94,31.3L10.046,3.106a.448.448,0,0,1,0-.294A2.884,2.884,0,0,1,11,.773,3,3,0,0,1,13.142,0Z" transform="translate(26.811 0)" opacity="0.4" fill="url(#linear-gradient)"/>
  </g>
  <path id="Path_245" data-name="Path 245" d="M35.126,5.338A1.69,1.69,0,0,1,35.464,7.7L25.324,21.225a1.69,1.69,0,0,1-2.29.392l-8.81-5.873L5.042,27.986a1.69,1.69,0,0,1-2.7-2.028L12.479,12.437a1.69,1.69,0,0,1,2.29-.392l8.81,5.874L32.76,5.676A1.69,1.69,0,0,1,35.126,5.338Z" transform="translate(75.015 -2.748)" fill-rule="evenodd" fill="url(#linear-gradient)"/>
</svg>
