<svg id="Groupe_41" data-name="Groupe 41" xmlns="http://www.w3.org/2000/svg" xmlns:xlink="http://www.w3.org/1999/xlink" width="136.312" height="120.925" viewBox="0 0 136.312 120.925">
  <defs>
    <linearGradient id="linear-gradient" x1="0.5" y1="0.143" x2="0.5" y2="0.87" gradientUnits="objectBoundingBox">
      <stop offset="0" stop-color="#009353"/>
      <stop offset="1" stop-color="#202020"/>
    </linearGradient>
  </defs>
  <path id="Soustraction_5" data-name="Soustraction 5" d="M68.255,120.925a18.893,18.893,0,0,1-12.311-4.542l9.606-9.606A5.181,5.181,0,0,0,71.937,106l42.335-42.335v-.2a29.413,29.413,0,0,0-.545-40.9,29.11,29.11,0,0,0-40.9,0,6.817,6.817,0,0,1-9.681,0A28.881,28.881,0,0,0,17.3,56.721L7.33,66.692a42.711,42.711,0,0,1,3.019-51.832A42.708,42.708,0,0,1,68.255,8.448a42.763,42.763,0,0,1,55.629,64.628l-42.335,42.4a18.9,18.9,0,0,1-13.294,5.444Z" transform="translate(0)" fill="url(#linear-gradient)"/>
  <path id="Tracé_40" data-name="Tracé 40" d="M32.221,0H0" transform="translate(17.52 72.217) rotate(-45)" fill="url(#linear-gradient)"/>
  <path id="Path_40_-_Outline" data-name="Path 40 - Outline" d="M4.574,9.147A4.574,4.574,0,0,1,4.574,0H36.795a4.574,4.574,0,1,1,0,9.147Z" transform="translate(11.051 72.217) rotate(-45)" fill="url(#linear-gradient)"/>
  <path id="Tracé_41" data-name="Tracé 41" d="M50.168,0H0" transform="translate(28.955 83.061) rotate(-45)" fill="url(#linear-gradient)"/>
  <path id="Path_41_-_Outline" data-name="Path 41 - Outline" d="M4.574,9.147A4.574,4.574,0,0,1,4.574,0H54.742a4.574,4.574,0,1,1,0,9.147Z" transform="translate(22.486 83.061) rotate(-45)" fill="url(#linear-gradient)"/>
  <path id="Tracé_42" data-name="Tracé 42" d="M45.778,0H0" transform="translate(40.197 94.577) rotate(-45)" fill="url(#linear-gradient)"/>
  <path id="Path_42_-_Outline" data-name="Path 42 - Outline" d="M4.574,9.147A4.574,4.574,0,0,1,4.574,0H50.352a4.574,4.574,0,0,1,0,9.147Z" transform="translate(33.729 94.577) rotate(-45)" fill="url(#linear-gradient)"/>
  <path id="Tracé_43" data-name="Tracé 43" d="M26.5,0H0" transform="translate(51.836 105.194) rotate(-45)" fill="url(#linear-gradient)"/>
  <path id="Path_43_-_Outline" data-name="Path 43 - Outline" d="M4.574,9.147A4.574,4.574,0,0,1,4.574,0h26.5a4.574,4.574,0,0,1,0,9.147Z" transform="translate(45.368 105.194) rotate(-45)" fill="url(#linear-gradient)"/>
</svg>
