<svg xmlns="http://www.w3.org/2000/svg" width="202.75" height="202.75" viewBox="0 0 202.75 202.75">
  <path id="Path_268" data-name="Path 268" d="M95.039,19.008h12.672a3.168,3.168,0,0,0,0-6.336H95.039a3.168,3.168,0,1,0,0,6.336ZM88.7,31.68h3.39l3.168,8.237a3.168,3.168,0,0,0,5.2,1.109l9.333-9.346h4.258a9.5,9.5,0,0,0,9.5-9.5V9.5a9.5,9.5,0,0,0-9.5-9.5H88.7a9.5,9.5,0,0,0-9.5,9.5V22.176a9.5,9.5,0,0,0,9.5,9.5ZM85.535,9.5A3.168,3.168,0,0,1,88.7,6.336h25.344A3.168,3.168,0,0,1,117.215,9.5V22.176a3.168,3.168,0,0,1-3.168,3.168h-5.569a3.168,3.168,0,0,0-2.243.925l-6.817,6.824-2.192-5.7a3.168,3.168,0,0,0-2.953-2.047H88.7a3.168,3.168,0,0,1-3.168-3.168Zm114.047,91.871a3.168,3.168,0,0,0-3.168,3.168v47.52h-6.336V85.535a15.839,15.839,0,0,0-12.669-15.516l0-9.828a3.13,3.13,0,0,0-.222-1.1,25.147,25.147,0,0,0,9.041-31.439,15.783,15.783,0,1,0-25.7-15.77,3.111,3.111,0,0,0-.057,1.058,25.185,25.185,0,0,0-8.408,47.748V71.653a15.783,15.783,0,0,0-2.281,1.514L130.356,88.7h-9.973a12.583,12.583,0,0,0-10.9,19.008h-16.2A12.621,12.621,0,0,0,82.367,88.7H72.394L52.968,73.167a15.783,15.783,0,0,0-2.281-1.514V60.191a3,3,0,0,0-.063-.323,24.964,24.964,0,0,0,10.29-32.535c-.038-.063-.063-.139-.108-.2a25.261,25.261,0,1,0-45.671,21.6l.071.056a25.344,25.344,0,0,0,10.2,11.082,3,3,0,0,0-.063.323v9.827A15.84,15.84,0,0,0,12.672,85.535v66.527H6.336v-47.52a3.168,3.168,0,0,0-6.336,0v95.039a3.168,3.168,0,1,0,6.336,0V158.4H44.352v41.184a3.168,3.168,0,1,0,6.336,0V158.4h6.336v31.68a12.672,12.672,0,1,0,25.344,0v-48.66a9.5,9.5,0,0,0-7.642-9.32L63.245,129.8a3.008,3.008,0,0,0,.114-.551v-16.79l1.267.95a3.168,3.168,0,0,0,1.9.634h31.68v82.367H91.871a3.168,3.168,0,1,0,0,6.336h19.008a3.168,3.168,0,1,0,0-6.336h-6.336V114.047h31.68a3.168,3.168,0,0,0,1.9-.634l1.267-.95v16.79a3.024,3.024,0,0,0,.114.551L128.03,132.1a9.5,9.5,0,0,0-7.647,9.32v48.66a12.672,12.672,0,1,0,25.344,0V158.4h6.336v41.184a3.168,3.168,0,1,0,6.336,0V158.4h38.016v41.184a3.168,3.168,0,1,0,6.336,0V104.543A3.168,3.168,0,0,0,199.582,101.375ZM19.008,38.016a18.951,18.951,0,0,1,34.214-11.3L27.878,31.743a3.168,3.168,0,0,0-2.534,3.1v9.5h-5.17a18.786,18.786,0,0,1-1.166-6.336ZM23.95,50.688h4.562A3.168,3.168,0,0,0,31.68,47.52V37.452L56.143,32.6a18.742,18.742,0,0,1,.881,5.417A18.938,18.938,0,0,1,23.95,50.688Zm20.4,11.772V69.8c-.425-.032-.849-.108-1.267-.108H31.68V62.46a25.052,25.052,0,0,0,6.336.9A25.053,25.053,0,0,0,44.352,62.46ZM73.5,138.314a3.168,3.168,0,0,1,2.534,3.1v48.66a6.336,6.336,0,0,1-12.672,0V155.23a3.168,3.168,0,0,0-3.168-3.168H19.008V127.416Zm2.534-30.6H67.585l-24.5-18.374a3.168,3.168,0,1,0-3.8,5.069l17.741,13.305h0v20.845l-38.016-7.6V85.535a9.5,9.5,0,0,1,9.5-9.5H43.084a9.5,9.5,0,0,1,5.937,2.085L69.3,94.355a3.168,3.168,0,0,0,1.983.691h4.752Zm6.336,0V95.039h0a6.336,6.336,0,1,1,0,12.672Zm38.016,0a6.336,6.336,0,0,1,0-12.672h0ZM175.822,6.336a9.447,9.447,0,0,1,6.97,15.872,25.185,25.185,0,0,0-15.954-9.162,9.422,9.422,0,0,1,8.984-6.71ZM163.15,19.008a18.9,18.9,0,0,1,14.389,31.281A50.111,50.111,0,0,1,168,31.844a3.168,3.168,0,0,0-2.129-2.534,38.947,38.947,0,0,1-11.741-7.926,18.767,18.767,0,0,1,9.022-2.376ZM144.143,38.016a18.862,18.862,0,0,1,4.929-12.672A51.809,51.809,0,0,0,162.1,34.626a61.921,61.921,0,0,0,10.568,19.73,18.786,18.786,0,0,1-9.523,2.667,19.008,19.008,0,0,1-19.008-19.008Zm26.928,23.95V69.7h-11.4c-.431,0-.849.076-1.267.108V62.878a25.293,25.293,0,0,0,4.752.482,25.008,25.008,0,0,0,7.92-1.394Zm12.672,90.1H142.559a3.168,3.168,0,0,0-3.168,3.168v34.848a6.336,6.336,0,0,1-12.672,0v-48.66a3.168,3.168,0,0,1,2.535-3.1l54.488-10.9Zm0-31.109-38.016,7.6V107.711h0l17.741-13.305a3.168,3.168,0,1,0-3.8-5.069l-24.5,18.374h-8.446V95.039h4.746a3.168,3.168,0,0,0,1.983-.691l20.275-16.233a9.5,9.5,0,0,1,5.943-2.085h14.573a9.5,9.5,0,0,1,9.5,9.5Z" fill="#009353"/>
</svg>
