<svg xmlns="http://www.w3.org/2000/svg" width="202.727" height="202.75" viewBox="0 0 202.727 202.75">
  <path id="Path_269" data-name="Path 269" d="M136.207,98.215H110.283a9.491,9.491,0,0,0-5.752-5.752V53.869a3.168,3.168,0,0,0-6.335,0V92.464a9.479,9.479,0,1,0,12.087,12.087h25.924a3.168,3.168,0,1,0,0-6.335Zm-34.844,6.335a3.168,3.168,0,1,1,3.168-3.168A3.168,3.168,0,0,1,101.363,104.551Zm101.363-3.168A101.363,101.363,0,1,0,19.1,160.6a9.265,9.265,0,0,0-.1.972V167.9a9.513,9.513,0,0,0,9.5,9.5h3.168v6.88A12.138,12.138,0,0,0,43.8,196.411h1.089a12.018,12.018,0,0,0,6.434-1.888,11.888,11.888,0,0,0,11.266,8.223h1.522a11.924,11.924,0,0,0,11.909-11.91V177.405H126.7v13.431a11.924,11.924,0,0,0,11.91,11.909h1.522a11.888,11.888,0,0,0,11.266-8.223,12.018,12.018,0,0,0,6.434,1.888h1.089a12.138,12.138,0,0,0,12.126-12.126v-6.879h3.168a9.513,9.513,0,0,0,9.5-9.5v-6.335a9.265,9.265,0,0,0-.1-.972,100.651,100.651,0,0,0,19.1-59.212ZM31.676,171.07H28.508a3.172,3.172,0,0,1-3.168-3.168v-6.335a3.172,3.172,0,0,1,3.168-3.168h3.168Zm19.006,13.215a5.8,5.8,0,0,1-5.791,5.791H43.8a5.8,5.8,0,0,1-5.791-5.791V151.521a5.8,5.8,0,0,1,5.791-5.791h1.089a5.8,5.8,0,0,1,5.791,5.791Zm19.006,6.552a5.579,5.579,0,0,1-5.574,5.574H62.591a5.579,5.579,0,0,1-5.574-5.574v-52.2a5.579,5.579,0,0,1,5.574-5.574h1.522a5.579,5.579,0,0,1,5.574,5.574ZM126.7,171.07H76.022V158.4H126.7Zm19.006-19.55v39.317a5.579,5.579,0,0,1-5.574,5.574h-1.522a5.579,5.579,0,0,1-5.574-5.574v-52.2a5.579,5.579,0,0,1,5.574-5.574h1.522a5.579,5.579,0,0,1,5.574,5.574Zm19.006,32.765a5.8,5.8,0,0,1-5.791,5.791h-1.089a5.8,5.8,0,0,1-5.791-5.791V151.521a5.8,5.8,0,0,1,5.791-5.791h1.089a5.8,5.8,0,0,1,5.79,5.791Zm1.132-42.7a12.038,12.038,0,0,0-6.923-2.195h-1.089a11.974,11.974,0,0,0-5.791,1.538v-2.3a11.925,11.925,0,0,0-11.91-11.909h-1.522a11.924,11.924,0,0,0-11.909,11.91v13.431H76.022V138.633a11.925,11.925,0,0,0-11.91-11.91H62.591a11.924,11.924,0,0,0-11.909,11.91v2.3a11.974,11.974,0,0,0-5.791-1.538H43.8a12.038,12.038,0,0,0-6.923,2.195A75.687,75.687,0,0,1,25.46,104.551h9.383a3.168,3.168,0,0,0,0-6.335H25.5A75.329,75.329,0,0,1,45.47,49.97l6.616,6.616a3.167,3.167,0,1,0,4.479-4.479L49.949,45.49A75.315,75.315,0,0,1,98.2,25.515v9.349a3.168,3.168,0,0,0,6.335,0V25.515A75.315,75.315,0,0,1,152.777,45.49l-6.616,6.616a3.167,3.167,0,1,0,4.479,4.479l6.615-6.616a75.329,75.329,0,0,1,19.976,48.246h-9.349a3.168,3.168,0,1,0,0,6.335h9.383a75.687,75.687,0,0,1-11.419,37.038ZM177.386,167.9a3.172,3.172,0,0,1-3.168,3.168H171.05V158.4h3.168a3.172,3.172,0,0,1,3.168,3.168Zm2.875-13.608a9.41,9.41,0,0,0-6.043-2.23H171.05v-.544a12.048,12.048,0,0,0-.989-4.781,82.358,82.358,0,1,0-137.4,0,12.047,12.047,0,0,0-.99,4.782v.544H28.508a9.409,9.409,0,0,0-6.043,2.23,95.028,95.028,0,1,1,157.795,0Z" transform="translate(0 0.004)" fill="#009353"/>
</svg>
