<svg xmlns="http://www.w3.org/2000/svg" width="38.57" height="41.783" viewBox="0 0 38.57 41.783">
  <g id="Group_28" data-name="Group 28" transform="translate(-10111.184 -548.934)">
    <path id="Subtraction_6" data-name="Subtraction 6" d="M.053,31.395h0L0,31.358.043,1.618l.022.019.008-.009L3.1,0,3.057,29.269l-3,2.125Z" transform="translate(10113.785 549.512)" fill="#006d3e"/>
    <path id="Subtraction_7" data-name="Subtraction 7" d="M18.267,17.525,0,4.369V.227L1.549,0,18.267,11.968v5.557Z" transform="translate(10111.184 562.918)" fill="#009353"/>
    <path id="Subtraction_8" data-name="Subtraction 8" d="M2.816,39.766h0L0,38.438,15.969,4.566,24.46,0,7.128,36.761Z" transform="translate(10125.294 550.398)" fill="#006d3e"/>
    <path id="Subtraction_9" data-name="Subtraction 9" d="M2.655,31.973,0,30.122V0L2.168,1.8l.488.4V31.972h0Z" transform="translate(10111.184 548.934)" fill="#009353"/>
    <path id="Subtraction_10" data-name="Subtraction 10" d="M4.4,30.594H4.329l.071-.05c0,.018,0,.036,0,.05Zm-1.44-.208h0L0,28.327.089,0,2.781,2.236l.016.03L5.819.641,5.736,28.449,2.957,30.385ZM0,29.554H0v-.065l.083.058L0,29.554Z" transform="translate(10124.659 560.123)" fill="#009353"/>
    <path id="Subtraction_11" data-name="Subtraction 11" d="M1.733,28.622h0L0,27.816l12.231-26.3L15.041,0Z" transform="translate(10128.585 553.694)" fill="#009353"/>
    <path id="Subtraction_12" data-name="Subtraction 12" d="M.238,29.746h0L0,29.58l.046-28L.062,1.6l.016.03L3.1,0,3.057,27.781.238,29.746Z" transform="translate(10127.378 560.762)" fill="#006d3e"/>
    <path id="Path_97" data-name="Path 97" d="M8909.044,704.878l10.933,7.98v-2.645l-7.957-5.7Z" transform="translate(1204.774 -141.178)" fill="#006d3e"/>
  </g>
</svg>
