<svg id="Groupe_44" data-name="Groupe 44" xmlns="http://www.w3.org/2000/svg" xmlns:xlink="http://www.w3.org/1999/xlink" width="162.545" height="110.684" viewBox="0 0 162.545 110.684">
  <defs>
    <linearGradient id="linear-gradient" x1="0.5" y1="0.143" x2="0.5" y2="0.87" gradientUnits="objectBoundingBox">
      <stop offset="0" stop-color="#009353"/>
      <stop offset="1" stop-color="#202020"/>
    </linearGradient>
    <clipPath id="clip-path">
      <rect id="Rectangle_98" data-name="Rectangle 98" width="180.31" height="12.783" fill="url(#linear-gradient)"/>
    </clipPath>
  </defs>
  <path id="Soustraction_13" data-name="Soustraction 13" d="M51.3,51.354H44.182V43.462H51.3a3.95,3.95,0,0,0,3.946-3.946V11.9A3.95,3.95,0,0,0,51.3,7.949H44.182V.03l1.973.008L51.3.058A11.827,11.827,0,0,1,63.133,11.9V39.516A11.828,11.828,0,0,1,51.3,51.354Zm-32.008,0h-7.45A11.828,11.828,0,0,1,0,39.516V11.9A11.828,11.828,0,0,1,11.838.058L14.094.04h.171C16.26.023,17.835.01,19.288,0V7.949h-7.45A3.95,3.95,0,0,0,7.892,11.9V39.516a3.95,3.95,0,0,0,3.946,3.946h7.45v7.891Z" transform="translate(53.224 110.684) rotate(-120)" fill="url(#linear-gradient)"/>
  <path id="Path_192" data-name="Path 192" d="M39.873,9.31H4.655a4.655,4.655,0,1,1,0-9.31H39.873a4.655,4.655,0,0,1,0,9.31Z" transform="translate(59.049 76.247) rotate(150)" fill="url(#linear-gradient)"/>
  <path id="Path_193" data-name="Path 193" d="M39.873,9.31H4.655a4.655,4.655,0,1,1,0-9.31H39.873a4.655,4.655,0,0,1,0,9.31Z" transform="translate(107.51 48.268) rotate(150)" fill="url(#linear-gradient)"/>
  <path id="Soustraction_14" data-name="Soustraction 14" d="M51.3,51.354H44.182V43.462H51.3a3.95,3.95,0,0,0,3.946-3.946V11.9A3.95,3.95,0,0,0,51.3,7.949H44.182V.03l1.973.008L51.3.058A11.827,11.827,0,0,1,63.133,11.9V39.516A11.828,11.828,0,0,1,51.3,51.354Zm-32.008,0h-7.45A11.828,11.828,0,0,1,0,39.516V11.9A11.828,11.828,0,0,1,11.838.058L14.094.04h.171C16.26.023,17.835.01,19.288,0V7.949h-7.45A3.95,3.95,0,0,0,7.892,11.9V39.516a3.95,3.95,0,0,0,3.946,3.946h7.45v7.891Z" transform="translate(105.663 80.408) rotate(-120)" fill="url(#linear-gradient)"/>
  <path id="Path_195" data-name="Path 195" d="M39.873,9.31H4.655a4.655,4.655,0,1,1,0-9.31H39.873a4.655,4.655,0,0,1,0,9.31Z" transform="translate(155.962 20.294) rotate(150)" fill="url(#linear-gradient)"/>
  <g id="Groupe_de_masques_23" data-name="Groupe de masques 23" transform="translate(0 90.155) rotate(-30)" clip-path="url(#clip-path)">
    <path id="Path_196" data-name="Path 196" d="M39.873,9.31H4.655a4.655,4.655,0,1,1,0-9.31H39.873a4.655,4.655,0,0,1,0,9.31Z" transform="translate(58.092 17.396) rotate(180)" fill="url(#linear-gradient)"/>
    <path id="Path_197" data-name="Path 197" d="M39.873,9.31H4.655a4.655,4.655,0,1,1,0-9.31H39.873a4.655,4.655,0,0,1,0,9.31Z" transform="translate(114.049 17.396) rotate(180)" fill="url(#linear-gradient)"/>
    <path id="Path_198" data-name="Path 198" d="M39.873,9.31H4.655a4.655,4.655,0,1,1,0-9.31H39.873a4.655,4.655,0,0,1,0,9.31Z" transform="translate(169.997 17.396) rotate(180)" fill="url(#linear-gradient)"/>
  </g>
</svg>
