<svg xmlns="http://www.w3.org/2000/svg" xmlns:xlink="http://www.w3.org/1999/xlink" width="384" height="385" viewBox="0 0 384 385">
  <defs>
    <filter id="Rectangle_143" x="0" y="0" width="384" height="385" filterUnits="userSpaceOnUse">
      <feOffset dx="2" dy="3" input="SourceAlpha"/>
      <feGaussianBlur stdDeviation="5" result="blur"/>
      <feFlood flood-color="#009353" flood-opacity="0.439"/>
      <feComposite operator="in" in2="blur"/>
      <feComposite in="SourceGraphic"/>
    </filter>
  </defs>
  <g id="Group_154" data-name="Group 154" transform="translate(-24 -1656)">
    <g transform="matrix(1, 0, 0, 1, 24, 1656)" filter="url(#Rectangle_143)">
      <rect id="Rectangle_143-2" data-name="Rectangle 143" width="354" height="355" transform="translate(13 12)" fill="#e9e9e9"/>
    </g>
    <text id="Binnenkort_beschikbaar" data-name="Binnenkort beschikbaar" transform="translate(214 1942)" fill="#202020" font-size="20" font-family="SofiaPro-Bold, Sofia Pro" font-weight="700"><tspan x="-110.48" y="0">Binnenkort beschikbaar</tspan></text>
    <text id="Informatievideo:_X" data-name="Informatievideo: X" transform="translate(131 1956)" fill="#009353" font-size="15" font-family="YuGothic-Regular, Yu Gothic"><tspan x="-62.992" y="15">Informatievideo: X</tspan></text>
    <g id="Group_153" data-name="Group 153" transform="translate(-9958.184 1211.066)">
      <path id="Subtraction_6" data-name="Subtraction 6" d="M.168,99.157h0L0,99.04.137,5.111l.071.059.024-.029L9.791,0,9.656,92.444.168,99.157Z" transform="translate(10119.399 550.759)" fill="#006d3e"/>
      <path id="Subtraction_7" data-name="Subtraction 7" d="M57.7,55.351,0,13.8V.718L4.894,0,57.7,37.8V55.35Z" transform="translate(10111.184 593.102)" fill="#009353"/>
      <path id="Subtraction_8" data-name="Subtraction 8" d="M8.895,125.6h0L0,121.4,50.437,14.421,77.253,0,22.513,116.106Z" transform="translate(10155.75 553.558)" fill="#006d3e"/>
      <path id="Subtraction_9" data-name="Subtraction 9" d="M8.386,100.983,0,95.138V0L6.849,5.686l1.54,1.278v94.017h0Z" transform="translate(10111.184 548.934)" fill="#009353"/>
      <path id="Subtraction_10" data-name="Subtraction 10" d="M13.886,96.626h-.213l.225-.157c-.005.058-.01.114-.013.157Zm-4.548-.658h0l-9.326-6.5L.28,0,8.785,7.062l.051.095,9.543-5.132-.263,87.828L9.339,95.969ZM0,93.345H0v-.2l.261.182c-.08.006-.165.013-.261.024Z" transform="translate(10153.745 584.274)" fill="#009353"/>
      <path id="Subtraction_11" data-name="Subtraction 11" d="M5.472,90.4h0L0,87.854,38.63,4.773,47.5,0Z" transform="translate(10166.144 563.968)" fill="#009353"/>
      <path id="Subtraction_12" data-name="Subtraction 12" d="M.75,93.95h0L0,93.427.145,5,.2,5.043l.051.094L9.8,0,9.656,87.743l-8.9,6.206Z" transform="translate(10162.332 586.293)" fill="#006d3e"/>
      <path id="Path_97" data-name="Path 97" d="M8909.045,705.658l34.525,25.206v-8.355l-25.131-17.992Z" transform="translate(1210.46 -110.086)" fill="#006d3e"/>
    </g>
    <path id="Path_266" data-name="Path 266" d="M57.93,18.362A21.99,21.99,0,0,0,55.576,7.678a7.554,7.554,0,0,0-4.45-2.587,202.731,202.731,0,0,0-21.654-.8A202.947,202.947,0,0,0,7.9,5.065,7.425,7.425,0,0,0,4.119,6.979C1.79,9.126,1.531,12.8,1.273,15.9a124.927,124.927,0,0,0,0,16.764,24.707,24.707,0,0,0,.776,5.174,8.123,8.123,0,0,0,1.837,3.518A7.4,7.4,0,0,0,7.74,43.38a116.885,116.885,0,0,0,16.816.854c9.055.129,17,0,26.388-.724A7.451,7.451,0,0,0,54.9,41.491,6.442,6.442,0,0,0,56.481,38.9a27.372,27.372,0,0,0,1.345-8.8C57.93,28.659,57.93,19.915,57.93,18.362Zm-34.3,13.3V15.646l15.316,8.046C34.646,26.072,28.981,28.763,23.625,31.66Z" transform="translate(61.059 1688.742)" fill="#009353"/>
  </g>
</svg>
